PathFileType	4	(X/Y/Z)	/Users/niels/Desktop/University/Third Semester/Perception and Action/Exam/Gymnastics Motion Tracking/Code for Gym Tracking/Analyzed Data/Webcam_Backflip/id7_1_baseline_Sports2D/id7_1_baseline_Sports2D_px_person00.trc
DataRate	CameraRate	NumFrames	NumMarkers	Units	OrigDataRate	OrigDataStartFrame	OrigNumFrames
29.708737864077673	29.708737864077673	9	22	m	29.708737864077673	38	103
Frame#	Time	Hip			RHip			RKnee			RAnkle			RBigToe			RSmallToe			RHeel			LHip			LKnee			LAnkle			LBigToe			LSmallToe			LHeel			Neck			Head			Nose			RShoulder			RElbow			RWrist			LShoulder			LElbow			LWrist		
		X1	Y1	Z1	X2	Y2	Z2	X3	Y3	Z3	X4	Y4	Z4	X5	Y5	Z5	X6	Y6	Z6	X7	Y7	Z7	X8	Y8	Z8	X9	Y9	Z9	X10	Y10	Z10	X11	Y11	Z11	X12	Y12	Z12	X13	Y13	Z13	X14	Y14	Z14	X15	Y15	Z15	X16	Y16	Z16	X17	Y17	Z17	X18	Y18	Z18	X19	Y19	Z19	X20	Y20	Z20	X21	Y21	Z21	X22	Y22	Z22
38	1.2790849673202613	0.8776972909413602	-0.5178280317863778	0.0	0.8666461131388056	-0.5224849722959618	0.0	0.9695321137419369	-0.7350170264964582	0.0	0.871421780876212	-0.9417889377274798	0.0	0.9729007039239285	-0.9814659065679489	0.0	0.9492912281390689	-0.9907552021099568	0.0	0.8428820854518875	-0.9696759516057316	0.0	0.8994510972966018	-0.5180340242332819	0.0	0.9739269626705481	-0.7272002993983809	0.0	0.8902031218032735	-0.9194809304885855	0.0	0.9918328804595287	-0.9524776034243545	0.0	0.977391217814912	-0.9460839083187247	0.0	0.8560593955429282	-0.9423862491305376	0.0	0.906588324709183	-0.19130914609613825	0.0	0.9648692882274971	-0.04720031071626144	0.0	0.9728674655434741	-0.13701858418537421	0.0	0.8666832070776027	-0.24401924920105642	0.0	0.9250372573136635	-0.4148020422533096	0.0	1.0455006550784374	-0.5249840515462737	0.0	0.9115073571116982	-0.24078494827169547	0.0	0.9498236469630708	-0.3955640444474752	0.0	1.0514783329215613	-0.4948974824405489	0.0
39	1.3127450980392157	0.881705355725892	-0.513998771194545	0.0	0.8721028681506403	-0.5190090088687302	0.0	0.9706184010097653	-0.7340858871361634	0.0	0.8717879950216391	-0.9418621004848147	0.0	0.9728103808668193	-0.9817630500953721	0.0	0.9492887976548121	-0.9912262122450561	0.0	0.8435631428437601	-0.9700499115767824	0.0	0.9032973678325213	-0.5148143172912361	0.0	0.974163542279539	-0.7256260852723049	0.0	0.8894063063594336	-0.9179747739920341	0.0	0.9882555439167647	-0.9506697439044978	0.0	0.9730949031306094	-0.9451269869137914	0.0	0.8536265648192127	-0.9406723663790203	0.0	0.8987002669050258	-0.1887077519387058	0.0	0.9540662871075924	-0.04401405720413445	0.0	0.9635574246596073	-0.1338788501689879	0.0	0.863335713687212	-0.24125529026449963	0.0	0.9424042935899212	-0.40047938653069787	0.0	1.0818293237424095	-0.4854375231074561	0.0	0.9033719693560556	-0.2373252274066267	0.0	0.9584225127123555	-0.38538819248026446	0.0	1.0813702165183703	-0.46152314189915217	0.0
40	1.3464052287581698	0.8865334619315438	-0.5085789818999726	0.0	0.8785182995516123	-0.5137002621343744	0.0	0.9692845690598871	-0.7318805688851935	0.0	0.8719032340536281	-0.9417599029010082	0.0	0.9726111391138123	-0.9820076148077509	0.0	0.9493303352870132	-0.9916266622973758	0.0	0.8440377981514988	-0.9701387578802639	0.0	0.9065908752806123	-0.5099928989690111	0.0	0.9715953480513186	-0.7225960299370902	0.0	0.8883655770540436	-0.9162157880538412	0.0	0.9839602444338673	-0.9490779040999917	0.0	0.9686284179356802	-0.9443689313548652	0.0	0.8504595159850877	-0.9390518623355144	0.0	0.8908726789356685	-0.18367849430834784	0.0	0.9440502907241722	-0.038567846314238714	0.0	0.9551266903864958	-0.1286011472592895	0.0	0.8598808781690487	-0.23514847339735645	0.0	0.954411847165989	-0.3809782496346806	0.0	1.1064330373764049	-0.4394630070896749	0.0	0.8943652189878148	-0.23135529956781814	0.0	0.9625810321159667	-0.3718059841869943	0.0	1.1005073058756163	-0.4230333709878372	0.0
41	1.3800653594771242	0.8915735101636515	-0.5023344456239055	0.0	0.8849632395212816	-0.5072631124854278	0.0	0.9656388072512713	-0.7288172748800485	0.0	0.8717906768688763	-0.941467847783837	0.0	0.9722653238144386	-0.9820990174078094	0.0	0.9493174092119596	-0.9918482412668783	0.0	0.8442866199206052	-0.9699542575279303	0.0	0.908679853720623	-0.5041670469415253	0.0	0.9666243939610925	-0.7186092273112866	0.0	0.8873729637398756	-0.9143235601281857	0.0	0.9795578739279711	-0.947776241977358	0.0	0.9646309983540715	-0.9437036016408148	0.0	0.8471945709827139	-0.9375649011345644	0.0	0.8836864937057954	-0.17675509588889013	0.0	0.9352367265786935	-0.03140076700865012	0.0	0.9478914098764312	-0.12152305882476121	0.0	0.8565125151165757	-0.22679488007979184	0.0	0.962151941326362	-0.35913895356093845	0.0	1.1211663188534862	-0.3910762429185759	0.0	0.8853201642146648	-0.22375483510338834	0.0	0.9638794044632526	-0.3565577190298532	0.0	1.1108247106435758	-0.3830500712462142	0.0
42	1.4137254901960783	0.8961479973421298	-0.49609170507940387	0.0	0.8906838467608931	-0.5004495843591019	0.0	0.9602347417947791	-0.7253566813166656	0.0	0.8715380810965692	-0.9410937015273263	0.0	0.9717298351974945	-0.9819436874437115	0.0	0.9492240322155018	-0.9918220955077443	0.0	0.8443867121969398	-0.9696777244290927	0.0	0.9090443699658881	-0.4980588443264051	0.0	0.9598861354522247	-0.7142361565399192	0.0	0.8864730985886466	-0.9124539556819707	0.0	0.9754263150240478	-0.9466794845950436	0.0	0.9612744607488969	-0.9429863465536305	0.0	0.8441192255776246	-0.9362849075210975	0.0	0.8777044454444748	-0.1687607318434692	0.0	0.9278742973443086	-0.023343191964977462	0.0	0.9418566399799942	-0.11326579352655766	0.0	0.85374469128116	-0.21756965570676173	0.0	0.9676707599815922	-0.3376376119839611	0.0	1.1285315434266878	-0.34335325642368036	0.0	0.876844069069279	-0.215460951613398	0.0	0.9640663059187027	-0.3408393069743725	0.0	1.1146140512906815	-0.3436225377629903	0.0
43	1.4473856209150326	0.8996113669810405	-0.49047318516343996	0.0	0.895199053858192	-0.49383836223656624	0.0	0.9537557301857958	-0.7218240997568927	0.0	0.8712275736951498	-0.9408605394025258	0.0	0.9710880305788088	-0.9814269299671475	0.0	0.949125851406818	-0.9914722604067709	0.0	0.8444675167452017	-0.969592879506332	0.0	0.9074839640223897	-0.49229459904148337	0.0	0.9520806647111768	-0.7098962576960033	0.0	0.8855635865259075	-0.9108890912070369	0.0	0.971905992534862	-0.9457093031705751	0.0	0.958585385333508	-0.9421973479937928	0.0	0.8413278267916919	-0.9354400193740008	0.0	0.8733481762072174	-0.16060253220985096	0.0	0.9220024006465541	-0.015307774884603675	0.0	0.9368578110002116	-0.10467050386185744	0.0	0.8520581153189891	-0.2086730453702904	0.0	0.9729115810602967	-0.3182425142726665	0.0	1.1303979508884878	-0.29841848865966436	0.0	0.8691429719825009	-0.20721589129468318	0.0	0.964491453674244	-0.32495669694169366	0.0	1.1134948479764915	-0.3051972342710607	0.0
44	1.4810457516339868	0.9015747369674645	-0.4857572541581826	0.0	0.8982757722876143	-0.4877760560216364	0.0	0.9467913985608061	-0.7184348950119996	0.0	0.8708677135798484	-0.9409698587781513	0.0	0.970534986634748	-0.9804925868940935	0.0	0.9491707789771635	-0.990777568909602	0.0	0.8445801191849868	-0.9699235129131528	0.0	0.9044056192271458	-0.48724224775378694	0.0	0.9439288142412873	-0.7058906733965182	0.0	0.8845786874312999	-0.9099171129299939	0.0	0.9694663775098387	-0.9449254519769915	0.0	0.9567896779929871	-0.9414156204156776	0.0	0.8389915784577602	-0.9351593596719943	0.0	0.8707583181704263	-0.15308096082029904	0.0	0.9174690076131318	-0.007984493433123343	0.0	0.9327544148165624	-0.09655719405215482	0.0	0.8515200746010317	-0.20084755423647294	0.0	0.9788977486861465	-0.3016329025973543	0.0	1.127896049993751	-0.2577605759997863	0.0	0.8622058322513539	-0.1995113941835159	0.0	0.9657638105992703	-0.3087769055806118	0.0	1.1085969849069195	-0.267906186067976	0.0
45	1.5147058823529411	0.9020600902364853	-0.4820073585577475	0.0	0.8998788701879658	-0.4825428377503371	0.0	0.9398092748077483	-0.7154368408889096	0.0	0.870413995148785	-0.9414718462692468	0.0	0.9702436792137125	-0.9792100129620659	0.0	0.9494940705380156	-0.9898164118165237	0.0	0.8446441815254313	-0.9707328395067122	0.0	0.9009597197603294	-0.48307824312545644	0.0	0.936174294454084	-0.7025581983938012	0.0	0.8835826882213539	-0.9096807655822533	0.0	0.9686213247385853	-0.944516751650192	0.0	0.9563349223655314	-0.9407731432727923	0.0	0.8374722460038038	-0.9353439714933494	0.0	0.8697305686788013	-0.14675011149659356	0.0	0.9140479706029876	-0.0017024161839459242	0.0	0.9295437711130656	-0.08946615459408634	0.0	0.8517230564138348	-0.1944242131206824	0.0	0.9855762243840213	-0.287783442489868	0.0	1.1220344576117198	-0.22237650873854803	0.0	0.8562329108149052	-0.1927044401998371	0.0	0.967903189064367	-0.2925254052736758	0.0	1.1011700476232613	-0.2329517820016725	0.0
46	1.5483660130718953	0.9014347744540574	-0.4792450969949753	0.0	0.9001858343815968	-0.478444895634144	0.0	0.9332099887544122	-0.713102601139985	0.0	0.8698269090920504	-0.9422409753083084	0.0	0.9702581661297477	-0.9777396856200926	0.0	0.9501041416235732	-0.9887230996774241	0.0	0.8445178264036185	-0.9719331436573678	0.0	0.8987307153824531	-0.47992924646573015	0.0	0.9295219868586789	-0.7002515801686859	0.0	0.8827197542548656	-0.9101248787712862	0.0	0.9696334723672223	-0.9446517153913794	0.0	0.9576154112455605	-0.9404175156384582	0.0	0.8371817130063604	-0.9358040230953223	0.0	0.8698279111646613	-0.14180483229180146	0.0	0.9115726975442786	0.0034641599540616783	0.0	0.9273540424779902	-0.08356002658596938	0.0	0.852085797710782	-0.18942338710949597	0.0	0.992161308176204	-0.27632196397875763	0.0	1.1139866234787708	-0.19275779572375204	0.0	0.8518463214983244	-0.1870669036171353	0.0	0.970573602123428	-0.27707874929483467	0.0	1.0926047533739565	-0.20249975812752288	0.0
